# xmcd CD database file
#
# Track frame offsets:
#	150
#	13705
#	25490
#	34755
#	50985
#	63902
#	75112
#	87767
#	103635
#	119437
#	132472
#	145750
#
# Disc length: 2149 seconds
#
# Revision: 2
# Processed by: cddbd v1.5.2PL0 Copyright (c) Steve Scherf et al.
# Submitted via: CDex 1.70beta2
#
DISCID=9c08630c
DTITLE=Larry Jackson - The Blue Highway
DYEAR=1991
DGENRE=Country
TTITLE0=The Blue Highway
TTITLE1=Danm Those Memories
TTITLE2=Sarah
TTITLE3=West Virginia Herbie
TTITLE4=This Lonely Bed I've Made
TTITLE5=How Bad Could It Be
TTITLE6=Old Hurtin' Memories
TTITLE7=My Sorrow Is Not Yet Completed
TTITLE8=When Love Dies
TTITLE9=Country Music Never Let Me Down
TTITLE10=Let's Have An Old Fashioned Love
TTITLE11=For Right Now
EXTD=YEAR: 1991
EXTT0=
EXTT1=
EXTT2=
EXTT3=
EXTT4=
EXTT5=
EXTT6=
EXTT7=
EXTT8=
EXTT9=
EXTT10=
EXTT11=
PLAYORDER=
